<?xml version="1.0" ?><svg width="20px" height="20px" viewBox="0 0 20 20" version="1.1" xmlns="http://www.w3.org/2000/svg"><g id="layer1"><path d="M 10 0 L 9.5644531 0.01953125 L 9.1328125 0.076171875 L 8.7050781 0.16992188 L 8.2890625 0.30273438 L 7.8867188 0.46875 L 7.5 0.66992188 L 7.1328125 0.90625 L 6.7871094 1.171875 L 6.4628906 1.4648438 L 6.1699219 1.7871094 L 5.9042969 2.1328125 L 5.6699219 2.5 L 5.46875 2.8886719 L 5.3027344 3.2910156 L 5.1699219 3.7070312 L 5.0761719 4.1328125 L 5.0195312 4.5664062 L 5 5.0019531 L 5.0175781 5.6816406 L 5.0742188 6.359375 L 5.1660156 7.0351562 L 5.2949219 7.703125 L 5.4589844 8.3613281 L 5.6601562 9.0136719 L 5.8984375 9.6523438 L 6.1660156 10.275391 L 6.4707031 10.884766 L 6.6523438 11.193359 L 6.8632812 11.484375 L 6.9296875 11.595703 L 6.9648438 11.720703 L 6.96875 11.847656 L 6.9375 11.974609 L 6.875 12.087891 L 6.7871094 12.181641 L 6.6777344 12.25 L 6.5527344 12.287109 L 5.6953125 12.449219 L 4.84375 12.646484 L 4.0019531 12.878906 L 3.1699219 13.146484 L 2.3515625 13.445312 L 2.0351562 13.591797 L 1.7382812 13.771484 L 1.4648438 13.986328 L 1.2167969 14.230469 L 0.99804688 14.5 L 0.81445312 14.794922 L 0.6640625 15.109375 L 0.46484375 15.652344 L 0.296875 16.208984 L 0.16796875 16.775391 L 0.07421875 17.345703 L 0.01953125 17.923828 L 0 18.503906 L 0.01953125 18.644531 L 0.080078125 18.775391 L 0.171875 18.882812 L 0.29296875 18.958984 L 0.42773438 19 L 0.57226562 19 L 0.70703125 18.958984 L 0.828125 18.882812 L 0.91992188 18.775391 L 0.98046875 18.644531 L 1 18.503906 L 1.0175781 17.988281 L 1.0664062 17.476562 L 1.1484375 16.964844 L 1.2636719 16.464844 L 1.4121094 15.96875 L 1.5898438 15.486328 L 1.7089844 15.242188 L 1.859375 15.017578 L 2.0390625 14.816406 L 2.2441406 14.640625 L 2.4707031 14.492188 L 2.7148438 14.378906 L 3.4960938 14.089844 L 4.2871094 13.835938 L 5.0878906 13.615234 L 5.9003906 13.427734 L 6.7167969 13.273438 L 6.9472656 13.216797 L 7.1699219 13.123047 L 7.3710938 12.996094 L 7.5507812 12.835938 L 7.7011719 12.652344 L 7.8222656 12.443359 L 7.9101562 12.220703 L 7.9570312 11.986328 L 7.9707031 11.748047 L 7.9433594 11.509766 L 7.8789062 11.279297 L 7.7792969 11.0625 L 7.6484375 10.865234 L 7.4902344 10.644531 L 7.3535156 10.416016 L 7.0742188 9.8554688 L 6.8261719 9.2792969 L 6.609375 8.6933594 L 6.4238281 8.09375 L 6.2734375 7.4863281 L 6.1542969 6.8710938 L 6.0683594 6.2519531 L 6.015625 5.6289062 L 6 5.0019531 L 6.0195312 4.609375 L 6.078125 4.2207031 L 6.171875 3.8398438 L 6.3046875 3.4707031 L 6.4726562 3.1152344 L 6.6738281 2.7792969 L 6.9082031 2.4628906 L 7.1699219 2.171875 L 7.4628906 1.9082031 L 7.7773438 1.6738281 L 8.1152344 1.4746094 L 8.4707031 1.3046875 L 8.8398438 1.1738281 L 9.21875 1.078125 L 9.6074219 1.0195312 L 10 1 L 10.392578 1.0195312 L 10.78125 1.078125 L 11.160156 1.1738281 L 11.529297 1.3046875 L 11.886719 1.4746094 L 12.222656 1.6738281 L 12.537109 1.9082031 L 12.830078 2.171875 L 13.091797 2.4628906 L 13.326172 2.7792969 L 13.527344 3.1152344 L 13.695312 3.4707031 L 13.828125 3.8398438 L 13.923828 4.2207031 L 13.982422 4.609375 L 14 5.0019531 L 13.984375 5.6289062 L 13.931641 6.2519531 L 13.845703 6.8710938 L 13.728516 7.4863281 L 13.576172 8.09375 L 13.390625 8.6933594 L 13.173828 9.2792969 L 12.925781 9.8554688 L 12.646484 10.416016 L 12.509766 10.644531 L 12.351562 10.865234 L 12.220703 11.0625 L 12.121094 11.279297 L 12.056641 11.509766 L 12.029297 11.748047 L 12.042969 11.986328 L 12.091797 12.220703 L 12.177734 12.443359 L 12.298828 12.652344 L 12.451172 12.835938 L 12.628906 12.996094 L 12.830078 13.123047 L 13.052734 13.216797 L 13.283203 13.273438 L 14.099609 13.427734 L 14.912109 13.615234 L 15.712891 13.835938 L 16.505859 14.089844 L 17.285156 14.378906 L 17.529297 14.492188 L 17.755859 14.640625 L 17.960938 14.816406 L 18.140625 15.017578 L 18.291016 15.242188 L 18.410156 15.486328 L 18.587891 15.96875 L 18.736328 16.464844 L 18.851562 16.964844 L 18.933594 17.476562 L 18.982422 17.988281 L 19 18.503906 L 19.019531 18.644531 L 19.080078 18.775391 L 19.171875 18.882812 L 19.292969 18.958984 L 19.427734 19 L 19.572266 19 L 19.708984 18.958984 L 19.828125 18.882812 L 19.919922 18.775391 L 19.980469 18.644531 L 20 18.503906 L 19.980469 17.923828 L 19.925781 17.345703 L 19.832031 16.773438 L 19.703125 16.208984 L 19.535156 15.652344 L 19.335938 15.109375 L 19.185547 14.794922 L 19.001953 14.5 L 18.783203 14.230469 L 18.535156 13.986328 L 18.263672 13.771484 L 17.966797 13.591797 L 17.648438 13.445312 L 16.830078 13.146484 L 15.998047 12.878906 L 15.15625 12.646484 L 14.306641 12.449219 L 13.447266 12.287109 L 13.322266 12.25 L 13.212891 12.181641 L 13.125 12.087891 L 13.0625 11.974609 L 13.033203 11.847656 L 13.035156 11.720703 L 13.070312 11.595703 L 13.136719 11.484375 L 13.347656 11.193359 L 13.529297 10.884766 L 13.833984 10.275391 L 14.103516 9.6523438 L 14.339844 9.0136719 L 14.541016 8.3613281 L 14.705078 7.703125 L 14.833984 7.0351562 L 14.925781 6.359375 L 14.982422 5.6816406 L 15 5.0019531 L 14.982422 4.5664062 L 14.923828 4.1328125 L 14.830078 3.7070312 L 14.697266 3.2910156 L 14.53125 2.8886719 L 14.330078 2.5 L 14.097656 2.1328125 L 13.830078 1.7871094 L 13.537109 1.4648438 L 13.212891 1.171875 L 12.869141 0.90625 L 12.5 0.66992188 L 12.113281 0.46875 L 11.710938 0.30273438 L 11.294922 0.16992188 L 10.867188 0.076171875 L 10.435547 0.01953125 L 10 0 z " style="fill:#222222; fill-opacity:1; stroke:none; stroke-width:0px;"/></g></svg>