<?xml version="1.0" ?><!DOCTYPE svg  PUBLIC '-//W3C//DTD SVG 1.1//EN'  'http://www.w3.org/Graphics/SVG/1.1/DTD/svg11.dtd'><svg width="32px" height="32px" viewBox="0 0 32 32" style="fill-rule:evenodd;clip-rule:evenodd;stroke-linejoin:round;stroke-miterlimit:2;" version="1.1" xml:space="preserve" xmlns="http://www.w3.org/2000/svg" xmlns:serif="http://www.serif.com/" xmlns:xlink="http://www.w3.org/1999/xlink"><g id="Icon"><path d="M4.96,27.999l0.051,0.001l0.043,-0.004c0.191,-0.024 0.957,-0.171 0.957,-0.996c-0,-4.971 4.029,-9 9,-9c0.661,-0 1.327,-0 1.988,-0c4.97,-0 9,4.029 9,9l-0,0c-0,0.021 0,0.041 0.002,0.061c0.015,0.325 0.153,0.537 0.323,0.676c0.178,0.164 0.415,0.263 0.675,0.263c-0,0 1,-0.057 1,-1c-0,-6.075 -4.925,-11 -11,-11c-0.661,-0 -1.327,-0 -1.988,-0c-6.075,-0 -11,4.925 -11,11c-0,-0.05 0.003,-0.092 0.008,-0.127c-0.005,0.041 -0.008,0.084 -0.008,0.127c-0,0.535 0.42,0.972 0.949,0.999Z"/><path d="M15.994,3.988c-2.763,-0 -5.006,2.243 -5.006,5.006c-0,2.763 2.243,5.006 5.006,5.006c2.763,0 5.006,-2.243 5.006,-5.006c0,-2.763 -2.243,-5.006 -5.006,-5.006Zm-0,2c1.659,-0 3.006,1.347 3.006,3.006c0,1.659 -1.347,3.006 -3.006,3.006c-1.659,0 -3.006,-1.347 -3.006,-3.006c-0,-1.659 1.347,-3.006 3.006,-3.006Z"/></g></svg>