<?xml version="1.0" encoding="iso-8859-1"?>
<!-- Generator: Adobe Illustrator 19.0.0, SVG Export Plug-In . SVG Version: 6.00 Build 0)  -->
<svg version="1.1" id="Layer_1" xmlns="http://www.w3.org/2000/svg" xmlns:xlink="http://www.w3.org/1999/xlink" x="0px" y="0px"
	 viewBox="0 0 299.458 299.458" style="enable-background:new 0 0 299.458 299.458;" xml:space="preserve">
<g>
	<g>
		<g>
			<path d="M268.169,92.12h-37.563l-59.879-58.069C178.576,18.494,167.192,0,149.729,0c-17.518,0-28.818,18.546-21,34.053
				L68.852,92.12H31.289c-14.254,0-25.85,11.597-25.85,25.85c0,2.901,0,153.319,0,155.638c0,14.253,11.596,25.85,25.85,25.85h236.88
				c14.254,0,25.85-11.597,25.85-25.85c0-2.318,0-152.736,0-155.638C294.019,103.717,282.423,92.12,268.169,92.12z M149.729,14.1
				c5.183,0,9.4,4.217,9.4,9.4c0,5.086-4.122,9.4-9.4,9.4c-5.165,0-9.4-4.202-9.4-9.4C140.329,18.317,144.546,14.1,149.729,14.1z
				 M138.561,44.159c7.201,3.89,15.525,3.68,22.338,0.002l49.453,47.959H89.105L138.561,44.159z M279.919,273.608
				c0,6.479-5.271,11.75-11.75,11.75H31.289c-6.479,0-11.75-5.271-11.75-11.75V155.1h260.38V273.608z M279.919,141H19.539v-23.03
				c0-6.479,5.271-11.75,11.75-11.75h236.88c6.479,0,11.75,5.271,11.75,11.75V141z"/>
			<circle cx="62.309" cy="191.189" r="15.04"/>
			<circle cx="120.589" cy="191.189" r="15.04"/>
			<circle cx="178.869" cy="191.189" r="15.04"/>
			<circle cx="237.149" cy="191.189" r="15.04"/>
			<circle cx="62.309" cy="249.268" r="15.04"/>
			<circle cx="120.589" cy="249.268" r="15.04"/>
			<circle cx="178.869" cy="249.268" r="15.04"/>
			<circle cx="237.149" cy="249.268" r="15.04"/>
		</g>
	</g>
</g>
<g>
</g>
<g>
</g>
<g>
</g>
<g>
</g>
<g>
</g>
<g>
</g>
<g>
</g>
<g>
</g>
<g>
</g>
<g>
</g>
<g>
</g>
<g>
</g>
<g>
</g>
<g>
</g>
<g>
</g>
</svg>
