<?xml version="1.0" encoding="iso-8859-1"?>
<!-- Generator: Adobe Illustrator 19.0.0, SVG Export Plug-In . SVG Version: 6.00 Build 0)  -->
<svg version="1.1" id="Capa_1" xmlns="http://www.w3.org/2000/svg" xmlns:xlink="http://www.w3.org/1999/xlink" x="0px" y="0px"
	 viewBox="0 0 490.305 490.305" style="enable-background:new 0 0 490.305 490.305;" xml:space="preserve">
<g>
	<path d="M472.469,81.443l-63.6-63.6c-13.1-16.4-53.2-30.2-83.4,0l-290.9,289.9l0,0c-4.4,4.4-6.5,10.1-6.2,15.6l-27.1,141.8
		c-4.2,16.2,11.9,26.6,22.9,25l147-29.2c4.2,0,7.3-2.1,10.4-5.2l290.9-289.8C495.469,142.943,495.469,104.443,472.469,81.443z
		 M354.669,46.043c6.3-7.3,18.8-7.3,26.1,0l17.3,17l-289.7,289.7l-30.1-30.4L354.669,46.043z M61.769,364.043l64.4,64.4l-80.1,15.8
		L61.769,364.043z M444.369,135.643l-276.8,276.8l-30.1-30.4l290-290l16.8,16.5C453.469,118.343,449.169,130.743,444.369,135.643z"
		/>
</g>
<g>
</g>
<g>
</g>
<g>
</g>
<g>
</g>
<g>
</g>
<g>
</g>
<g>
</g>
<g>
</g>
<g>
</g>
<g>
</g>
<g>
</g>
<g>
</g>
<g>
</g>
<g>
</g>
<g>
</g>
</svg>
