<?xml version='1.0' encoding='iso-8859-1'?>
<!DOCTYPE svg PUBLIC '-//W3C//DTD SVG 1.1//EN' 'http://www.w3.org/Graphics/SVG/1.1/DTD/svg11.dtd'>
<!-- Uploaded to: SVG Repo, www.svgrepo.com, Generator: SVG Repo Mixer Tools -->
<svg fill="#000000" height="800px" width="800px" version="1.1" xmlns="http://www.w3.org/2000/svg" viewBox="0 0 460.002 460.002" xmlns:xlink="http://www.w3.org/1999/xlink" enable-background="new 0 0 460.002 460.002">
  <g>
    <path d="m449.533,269.93l-90.934-39.929 90.934-39.929c8.85-3.886 12.874-14.21 8.988-23.059s-14.209-12.872-23.059-8.988l-120.391,52.863-23.108-10.147c9.736-7.078 17.786-16.735 22.965-28.529 15.596-35.52-0.612-77.106-36.132-92.704-35.518-15.595-77.106,0.612-92.704,36.133-15.597,35.519 0.612,77.105 36.132,92.703l49.32,21.656-49.32,21.656c-35.52,15.597-51.729,57.183-36.132,92.704 11.569,26.347 37.433,42.069 64.519,42.067 9.43-0.001 19.013-1.908 28.185-5.935 35.52-15.597 51.729-57.184 36.132-92.704-5.18-11.795-13.236-21.446-22.974-28.524l23.117-10.151 120.391,52.863c2.29,1.005 4.676,1.481 7.026,1.481 6.733,0 13.152-3.909 16.033-10.469 3.886-8.848-0.138-19.172-8.988-23.058zm-231.394-140.216c5.813-13.24 18.811-21.14 32.422-21.14 4.739,0 9.554,0.958 14.163,2.982 17.85,7.838 25.995,28.736 18.157,46.585-7.837,17.85-28.736,25.993-46.585,18.157-17.85-7.838-25.995-28.735-18.157-46.584zm65.311,199.2c-3.429,8.799-10.08,15.736-18.726,19.532-17.851,7.838-38.748-0.307-46.585-18.157s0.308-38.748 18.157-46.585c4.61-2.025 9.424-2.983 14.164-2.983 13.61,0 26.608,7.901 32.421,21.14 3.797,8.646 3.999,18.254 0.569,27.053z"/>
    <path d="M107.534,1.012H17.5C7.835,1.012,0,8.847,0,18.512s7.835,17.5,17.5,17.5h90.034c6.043,0,10.96,4.917,10.96,10.96v14.465   H17.5c-9.665,0-17.5,7.835-17.5,17.5s7.835,17.5,17.5,17.5h100.994v25.426H17.5c-9.665,0-17.5,7.835-17.5,17.5   s7.835,17.5,17.5,17.5h100.994v25.425H17.5c-9.665,0-17.5,7.835-17.5,17.5s7.835,17.5,17.5,17.5h100.994v25.426H17.5   c-9.665,0-17.5,7.835-17.5,17.5c0,9.665,7.835,17.5,17.5,17.5h100.994v25.425H17.5c-9.665,0-17.5,7.835-17.5,17.5   s7.835,17.5,17.5,17.5h100.994v25.426H17.5c-9.665,0-17.5,7.835-17.5,17.5s7.835,17.5,17.5,17.5h100.994v14.465   c0,6.043-4.917,10.96-10.96,10.96H17.5c-9.665,0-17.5,7.835-17.5,17.5s7.835,17.5,17.5,17.5h90.034   c25.343,0,45.96-20.618,45.96-45.96V46.972C153.494,21.629,132.876,1.012,107.534,1.012z"/>
  </g>
</svg>