<?xml version="1.0" encoding="iso-8859-1"?>
<!-- Uploaded to: SVG Repo, www.svgrepo.com, Generator: SVG Repo Mixer Tools -->
<svg fill="#000000" height="800px" width="800px" version="1.1" id="Layer_1" xmlns="http://www.w3.org/2000/svg" xmlns:xlink="http://www.w3.org/1999/xlink" 
	 viewBox="0 0 512 512" xml:space="preserve">
<g>
	<g>
		<path d="M500.214,57.329c-4.576-2.712-10.245-2.81-14.905-0.256L414.407,95.87L291.567,65.617C262.694,25.886,215.873,0,163.111,0
			C75.601,0,4.406,71.195,4.406,158.705c0,32.611,9.892,62.952,26.824,88.192l90.1,219.247
			c7.389,18.184,21.418,32.401,39.499,40.032c9.195,3.881,18.878,5.823,28.567,5.823c9.365,0,18.735-1.815,27.672-5.447
			c18.184-7.389,32.402-21.418,40.034-39.501c7.632-18.083,7.766-38.055,0.352-56.293l-42.01-102.225
			c30.794-10.787,57.278-30.812,76.119-56.74l122.839-30.253l70.903,38.797c2.254,1.233,4.741,1.849,7.228,1.849
			c2.659,0,5.313-0.703,7.679-2.104c4.575-2.712,7.38-7.636,7.38-12.955V70.283C507.594,64.965,504.788,60.041,500.214,57.329z
			 M229.578,422.153c4.361,10.729,4.281,22.516-0.221,33.188c-4.504,10.671-12.895,18.95-23.626,23.311
			c-10.729,4.363-22.517,4.281-33.187-0.221c-10.671-4.504-18.95-12.895-23.334-23.68L84.11,296.34
			c1.098,0.629,2.209,1.233,3.322,1.837c0.041,0.021,0.08,0.044,0.119,0.066c0.854,0.462,1.714,0.914,2.577,1.361
			c0.581,0.303,1.167,0.601,1.753,0.897c0.651,0.327,1.3,0.655,1.953,0.973c2.802,1.364,5.652,2.647,8.541,3.849
			c0.107,0.044,0.214,0.087,0.321,0.131c15.42,6.371,32.053,10.38,49.449,11.573c0.367,0.026,0.738,0.047,1.105,0.071
			c1.253,0.077,2.509,0.14,3.769,0.188c0.423,0.017,0.845,0.035,1.268,0.048c1.602,0.048,3.208,0.08,4.822,0.08
			c1.72,0,3.429-0.038,5.135-0.092c0.444-0.014,0.887-0.033,1.331-0.051c1.444-0.059,2.882-0.134,4.317-0.232
			c0.291-0.02,0.583-0.035,0.875-0.056c1.727-0.127,3.447-0.28,5.159-0.461c0.31-0.033,0.619-0.072,0.929-0.107
			c1.42-0.158,2.833-0.336,4.241-0.533c0.257-0.038,0.513-0.062,0.769-0.098L229.578,422.153z M291.546,164.631
			c-0.024,0.545-0.059,1.089-0.09,1.632c-0.092,1.569-0.209,3.129-0.357,4.683c-0.041,0.426-0.074,0.854-0.117,1.28
			c-0.208,1.988-0.456,3.965-0.754,5.924c-0.024,0.157-0.054,0.313-0.078,0.47c-0.288,1.845-0.617,3.676-0.983,5.493
			c-0.063,0.313-0.127,0.625-0.191,0.937c-10.856,51.926-53.123,92.445-105.948,100.694c-0.226,0.035-0.453,0.071-0.679,0.105
			c-1.893,0.285-3.798,0.527-5.716,0.729c-0.307,0.032-0.616,0.06-0.925,0.09c-1.909,0.187-3.828,0.337-5.761,0.44
			c-0.233,0.012-0.467,0.018-0.7,0.03c-2.034,0.096-4.078,0.155-6.133,0.155c-1.968,0-3.921-0.062-5.868-0.149
			c-0.416-0.018-0.833-0.035-1.248-0.057c-1.807-0.099-3.602-0.238-5.388-0.411c-0.542-0.053-1.083-0.115-1.623-0.175
			c-1.471-0.161-2.933-0.348-4.39-0.56c-0.723-0.105-1.446-0.217-2.165-0.334c-1.307-0.212-2.607-0.447-3.9-0.699
			c-0.756-0.148-1.513-0.295-2.266-0.456c-1.471-0.313-2.933-0.651-4.385-1.015c-0.795-0.199-1.583-0.416-2.373-0.629
			c-0.989-0.268-1.973-0.55-2.952-0.84c-1-0.297-1.997-0.604-2.989-0.925c-1.167-0.378-2.328-0.77-3.482-1.181
			c-0.702-0.25-1.4-0.503-2.098-0.765c-1.492-0.562-2.977-1.14-4.444-1.756c-0.455-0.19-0.902-0.393-1.354-0.587
			c-1.396-0.604-2.781-1.227-4.152-1.881c-0.294-0.139-0.589-0.273-0.881-0.414c-1.721-0.836-3.423-1.706-5.1-2.616
			c-0.13-0.069-0.259-0.142-0.389-0.212c-39.968-21.835-67.141-64.265-67.141-112.928c0-70.903,57.684-128.587,128.589-128.587
			c61.875,0,113.673,43.934,125.863,102.243c0.065,0.312,0.13,0.625,0.191,0.937c0.366,1.818,0.696,3.649,0.983,5.493
			c0.024,0.157,0.054,0.313,0.078,0.47c0.298,1.961,0.547,3.936,0.754,5.924c0.045,0.426,0.078,0.854,0.117,1.28
			c0.148,1.553,0.267,3.114,0.357,4.683c0.032,0.544,0.065,1.087,0.09,1.632c0.09,1.965,0.151,3.938,0.151,5.926
			C291.697,160.693,291.637,162.664,291.546,164.631z M401.435,193.714l-90.26,22.23c0.276-0.711,0.512-1.438,0.777-2.156
			c0.258-0.696,0.506-1.394,0.754-2.095c0.539-1.524,1.06-3.052,1.553-4.591c0.333-1.036,0.654-2.075,0.964-3.12
			c0.339-1.141,0.669-2.286,0.982-3.435c0.372-1.357,0.724-2.721,1.06-4.093c0.158-0.651,0.327-1.297,0.477-1.949
			c0.423-1.831,0.804-3.677,1.164-5.533c0.107-0.554,0.218-1.108,0.319-1.664c0.352-1.931,0.666-3.875,0.947-5.829
			c0.068-0.476,0.135-0.95,0.2-1.428c0.274-2.024,0.509-4.06,0.706-6.106c0.038-0.39,0.069-0.782,0.104-1.173
			c0.188-2.126,0.34-4.263,0.443-6.414c0.014-0.267,0.02-0.533,0.03-0.8c0.096-2.274,0.157-4.557,0.157-6.855
			c0-2.295-0.06-4.578-0.157-6.85c-0.012-0.27-0.018-0.539-0.03-0.809c-0.102-2.144-0.254-4.275-0.441-6.397
			c-0.035-0.399-0.068-0.798-0.107-1.196c-0.196-2.037-0.431-4.063-0.702-6.078c-0.066-0.489-0.135-0.977-0.205-1.465
			c-0.28-1.94-0.59-3.869-0.94-5.784c-0.105-0.578-0.22-1.152-0.331-1.729c-0.349-1.803-0.72-3.598-1.131-5.378
			c-0.164-0.714-0.345-1.423-0.518-2.134c-0.322-1.316-0.661-2.625-1.018-3.927c-0.331-1.22-0.681-2.433-1.042-3.646
			c-0.294-0.98-0.593-1.958-0.905-2.929c-0.518-1.622-1.066-3.232-1.637-4.837c-0.221-0.622-0.441-1.244-0.672-1.861
			c-0.273-0.739-0.518-1.488-0.801-2.223l90.258,22.228V193.714z M477.476,221.722l-45.925-25.13v-75.773l45.925-25.13V221.722z"/>
	</g>
</g>
<g>
	<g>
		<path d="M181.176,143.646H99.87c-8.315,0-15.059,6.742-15.059,15.059c0,8.317,6.743,15.059,15.059,15.059h81.306
			c8.315,0,15.059-6.742,15.059-15.059C196.235,150.388,189.491,143.646,181.176,143.646z"/>
	</g>
</g>
<g>
	<g>
		<path d="M241.122,155.755c-0.196-0.949-0.482-1.897-0.858-2.816c-0.376-0.904-0.843-1.777-1.385-2.59
			c-0.557-0.828-1.19-1.596-1.882-2.289c-0.693-0.693-1.461-1.325-2.29-1.882c-0.813-0.542-1.685-1.009-2.59-1.385
			c-0.917-0.376-1.867-0.663-2.816-0.858c-1.943-0.391-3.945-0.391-5.888,0c-0.964,0.196-1.912,0.482-2.814,0.858
			c-0.919,0.376-1.792,0.843-2.605,1.385c-0.828,0.557-1.596,1.19-2.289,1.882c-0.693,0.693-1.327,1.461-1.867,2.289
			c-0.542,0.813-1.009,1.687-1.385,2.59c-0.376,0.919-0.663,1.867-0.858,2.816c-0.196,0.979-0.301,1.973-0.301,2.951
			c0,0.979,0.105,1.973,0.301,2.937c0.196,0.964,0.482,1.912,0.858,2.816c0.376,0.919,0.842,1.792,1.385,2.605
			c0.541,0.828,1.175,1.596,1.867,2.289c0.693,0.693,1.461,1.325,2.289,1.867c0.813,0.542,1.687,1.009,2.605,1.385
			c0.904,0.376,1.851,0.663,2.814,0.858c0.965,0.196,1.959,0.301,2.936,0.301c0.979,0,1.974-0.105,2.952-0.301
			c0.949-0.196,1.899-0.482,2.816-0.858c0.905-0.376,1.777-0.843,2.59-1.385c0.83-0.542,1.598-1.175,2.29-1.867
			s1.325-1.461,1.882-2.289c0.542-0.813,1.009-1.687,1.385-2.605c0.376-0.904,0.663-1.852,0.858-2.816
			c0.196-0.964,0.285-1.958,0.285-2.937C241.406,157.728,241.316,156.734,241.122,155.755z"/>
	</g>
</g>
<g>
	<g>
		<path d="M226.352,207.646h-81.306c-8.315,0-15.059,6.742-15.059,15.059c0,8.317,6.743,15.059,15.059,15.059h81.306
			c8.315,0,15.059-6.742,15.059-15.059C241.411,214.388,234.669,207.646,226.352,207.646z"/>
	</g>
</g>
<g>
	<g>
		<path d="M114.631,219.756c-0.199-0.949-0.485-1.899-0.861-2.816c-0.376-0.904-0.843-1.777-1.385-2.59
			c-0.542-0.828-1.175-1.596-1.867-2.289c-0.693-0.693-1.461-1.325-2.289-1.882c-0.813-0.542-1.687-0.994-2.592-1.37
			c-0.917-0.376-1.866-0.678-2.831-0.858c-1.943-0.407-3.945-0.391-5.871,0c-0.965,0.181-1.914,0.482-2.816,0.858
			c-0.919,0.376-1.792,0.828-2.605,1.37c-0.828,0.557-1.596,1.19-2.289,1.882c-0.693,0.693-1.325,1.461-1.867,2.289
			c-0.542,0.813-1.009,1.687-1.385,2.59c-0.376,0.919-0.678,1.867-0.858,2.816c-0.196,0.979-0.301,1.973-0.301,2.952
			c0,3.961,1.611,7.846,4.414,10.647c0.693,0.693,1.461,1.325,2.289,1.867c0.813,0.542,1.687,1.009,2.605,1.385
			c0.904,0.377,1.851,0.663,2.816,0.858c0.964,0.196,1.958,0.301,2.935,0.301c0.979,0,1.974-0.105,2.936-0.301
			c0.965-0.196,1.914-0.482,2.831-0.858c0.905-0.376,1.778-0.843,2.592-1.385c0.828-0.542,1.596-1.175,2.289-1.867
			c2.801-2.801,4.412-6.686,4.412-10.647C114.93,221.729,114.827,220.735,114.631,219.756z"/>
	</g>
</g>
<g>
	<g>
		<path d="M226.352,79.646h-81.306c-8.315,0-15.059,6.742-15.059,15.059c0,8.317,6.743,15.059,15.059,15.059h81.306
			c8.315,0,15.059-6.742,15.059-15.059C241.411,86.388,234.669,79.646,226.352,79.646z"/>
	</g>
</g>
<g>
	<g>
		<path d="M114.628,91.756c-0.196-0.949-0.482-1.897-0.858-2.816c-0.376-0.904-0.843-1.777-1.385-2.59
			c-0.542-0.828-1.175-1.596-1.867-2.289c-0.693-0.693-1.461-1.325-2.289-1.882c-0.813-0.542-1.687-0.994-2.592-1.37
			c-0.917-0.376-1.866-0.678-2.831-0.858c-1.943-0.407-3.945-0.407-5.871,0c-0.965,0.181-1.914,0.482-2.816,0.858
			c-0.919,0.376-1.792,0.828-2.605,1.37c-0.828,0.557-1.596,1.19-2.289,1.882c-0.693,0.693-1.325,1.461-1.867,2.289
			c-0.542,0.813-1.009,1.687-1.385,2.59c-0.376,0.919-0.678,1.867-0.858,2.816c-0.196,0.979-0.301,1.973-0.301,2.952
			c0,3.961,1.611,7.846,4.414,10.647c0.691,0.691,1.458,1.324,2.286,1.867c0.813,0.542,1.687,1.009,2.605,1.385
			c0.904,0.376,1.851,0.663,2.816,0.858c0.964,0.196,1.958,0.301,2.935,0.301c0.979,0,1.974-0.105,2.936-0.301
			c0.965-0.196,1.914-0.482,2.831-0.858c0.905-0.376,1.778-0.843,2.592-1.385c0.828-0.542,1.596-1.175,2.289-1.867
			c2.801-2.801,4.412-6.686,4.412-10.647C114.927,93.729,114.824,92.735,114.628,91.756z"/>
	</g>
</g>
</svg>